<svg width="124" height="40" viewBox="0 0 124 40" fill="none" xmlns="http://www.w3.org/2000/svg">
<path d="M81.0924 14.9989C75.9338 14.9989 73.298 19.011 73.298 25.0546C73.298 30.7677 76.1482 35.0559 81.0924 35.0559C86.6837 35.0559 88.7802 30.0002 88.7802 25.0546C88.7763 19.8909 86.1418 14.9989 81.0909 14.9989M67.3854 -0.00038147H73.5129V14.5043H73.6214C75.2879 11.7577 78.7814 10.0539 81.8996 10.0539C90.6605 10.0539 94.9084 16.8693 94.9084 25.1668C94.9084 32.8017 91.1462 40 82.9202 40C79.1576 40 75.1259 39.0677 73.2972 35.3304H73.1911V39.2334H67.3848V0.000396729L67.3854 -0.00038147Z" fill="black"/>
<path d="M117.508 20.3307C117.024 16.8689 114.552 14.9995 111.165 14.9995C107.992 14.9995 103.531 16.7038 103.531 25.3305C103.531 30.0564 105.573 35.0577 110.896 35.0577C114.443 35.0577 116.915 32.6369 117.508 28.5706H123.636C122.506 35.9335 118.046 40 110.896 40C102.187 40 97.4036 33.6823 97.4036 25.3305C97.4036 16.7594 101.973 10.0556 111.111 10.0556C117.561 10.0556 123.046 13.3521 123.636 20.3307H117.518H117.508Z" fill="black"/>
<path d="M45.9615 39.1478H0L21.4631 -0.000400543H67.4252L45.9615 39.1478Z" fill="black"/>
</svg>
