<svg width="64" height="64" viewBox="0 0 64 64" fill="none" xmlns="http://www.w3.org/2000/svg">
<path fill-rule="evenodd" clip-rule="evenodd" d="M15.5676 32.0001C15.5676 22.9246 22.9246 15.5676 32.0001 15.5676C41.0754 15.5676 48.4324 22.9246 48.4324 32.0001C48.4324 41.0754 41.0754 48.4324 32.0001 48.4324C22.9246 48.4324 15.5676 41.0754 15.5676 32.0001ZM32.0001 42.6667C26.1089 42.6667 21.3333 37.8911 21.3333 32.0001C21.3333 26.1089 26.1089 21.3333 32.0001 21.3333C37.8911 21.3333 42.6667 26.1089 42.6667 32.0001C42.6667 37.8911 37.8911 42.6667 32.0001 42.6667Z" fill="black"/>
<path d="M49.0816 18.7583C51.2024 18.7583 52.9217 17.0392 52.9217 14.9184C52.9217 12.7976 51.2024 11.0783 49.0816 11.0783C46.961 11.0783 45.2417 12.7976 45.2417 14.9184C45.2417 17.0392 46.961 18.7583 49.0816 18.7583Z" fill="black"/>
<path fill-rule="evenodd" clip-rule="evenodd" d="M32.0001 0C23.3093 0 22.2196 0.036837 18.8064 0.192569C15.4004 0.347919 13.0742 0.888915 11.0388 1.68002C8.9345 2.49768 7.14994 3.59186 5.37084 5.37084C3.59186 7.14994 2.49768 8.9345 1.68002 11.0388C0.888915 13.0742 0.347919 15.4004 0.192569 18.8064C0.036837 22.2196 0 23.3093 0 32.0001C0 40.6907 0.036837 41.7804 0.192569 45.1936C0.347919 48.5996 0.888915 50.9258 1.68002 52.9612C2.49768 55.0655 3.59186 56.8501 5.37084 58.6292C7.14994 60.4081 8.9345 61.5023 11.0388 62.3201C13.0742 63.1111 15.4004 63.6521 18.8064 63.8074C22.2196 63.9632 23.3093 64 32.0001 64C40.6907 64 41.7804 63.9632 45.1936 63.8074C48.5996 63.6521 50.9258 63.1111 52.9612 62.3201C55.0655 61.5023 56.8501 60.4081 58.6292 58.6292C60.4081 56.8501 61.5023 55.0655 62.3201 52.9612C63.1111 50.9258 63.6521 48.5996 63.8074 45.1936C63.9632 41.7804 64 40.6907 64 32.0001C64 23.3093 63.9632 22.2196 63.8074 18.8064C63.6521 15.4004 63.1111 13.0742 62.3201 11.0388C61.5023 8.9345 60.4081 7.14994 58.6292 5.37084C56.8501 3.59186 55.0655 2.49768 52.9612 1.68002C50.9258 0.888915 48.5996 0.347919 45.1936 0.192569C41.7804 0.036837 40.6907 0 32.0001 0ZM32.0001 5.76576C40.5444 5.76576 41.5565 5.7984 44.9308 5.95235C48.0507 6.09462 49.7451 6.61593 50.8727 7.05416C52.3664 7.63466 53.4324 8.32809 54.5521 9.44793C55.6719 10.5677 56.3653 11.6336 56.9459 13.1273C57.3841 14.2549 57.9054 15.9493 58.0477 19.0693C58.2016 22.4435 58.2343 23.4557 58.2343 32.0001C58.2343 40.5443 58.2016 41.5565 58.0477 44.9307C57.9054 48.0507 57.3841 49.7451 56.9459 50.8727C56.3653 52.3664 55.6719 53.4324 54.5521 54.5521C53.4324 55.6719 52.3664 56.3653 50.8727 56.9458C49.7451 57.3841 48.0507 57.9054 44.9308 58.0476C41.557 58.2016 40.545 58.2342 32.0001 58.2342C23.455 58.2342 22.4432 58.2016 19.0693 58.0476C15.9493 57.9054 14.2549 57.3841 13.1273 56.9458C11.6336 56.3653 10.5677 55.6719 9.44794 54.5521C8.32822 53.4324 7.63467 52.3664 7.05417 50.8727C6.61594 49.7451 6.09463 48.0507 5.95236 44.9307C5.79841 41.5565 5.76576 40.5443 5.76576 32.0001C5.76576 23.4557 5.79841 22.4435 5.95236 19.0693C6.09463 15.9493 6.61594 14.2549 7.05417 13.1273C7.63467 11.6336 8.32809 10.5677 9.44794 9.44793C10.5677 8.32809 11.6336 7.63466 13.1273 7.05416C14.2549 6.61593 15.9493 6.09462 19.0693 5.95235C22.4435 5.7984 23.4557 5.76576 32.0001 5.76576Z" fill="black"/>
</svg>
