<?xml version="1.0" encoding="UTF-8" standalone="no"?>
<svg
   width="64"
   height="64.000771"
   viewBox="0 0 64 64.000771"
   fill="none"
   version="1.1"
   id="svg1450"
   xmlns="http://www.w3.org/2000/svg"
   xmlns:svg="http://www.w3.org/2000/svg">
  <defs
     id="defs1454" />
  <path
     id="path1442"
     d="M 59.257812,4.0550888e-4 V 0.00431176 H 4.7226562 C 2.145184,-0.02477565 0.03145671,2.0400908 0,4.617593 v 54.763672 c 0.03037971,2.578794 2.143934,4.646241 4.7226562,4.619141 H 59.257812 C 61.841606,64.032506 63.9642,61.965159 64,59.381265 V 4.6136867 C 63.9632,2.0310945 61.840406,-0.03324036 59.257812,4.0550888e-4 Z M 14.236328,8.8109524 c 3.039194,-5.5e-4 5.503306,2.4627596 5.503906,5.5019536 2e-4,1.459598 -0.577577,2.86038 -1.609375,3.892578 -1.031898,1.032198 -2.43318,1.611128 -3.892578,1.611328 -3.039294,6e-4 -5.503366,-2.462659 -5.503906,-5.501953 -5.5e-4,-3.039294 2.462759,-5.5033666 5.501953,-5.5039066 z M 42.808594,23.225015 c 0.114725,3.19e-4 0.228931,0.0036 0.34375,0.0078 9.61117,0 11.382812,6.322399 11.382812,14.546875 l -0.0039,16.751966 H 45.048828 V 39.682047 c 0,-3.541291 -0.06471,-8.09961 -4.933594,-8.09961 -4.938885,0 -5.693359,3.857909 -5.693359,7.841797 V 54.531656 H 24.939453 V 23.992594 h 9.103516 v 4.173828 h 0.126953 c 1.740275,-2.975429 4.881493,-4.828047 8.294922,-4.935547 0.113781,-0.0036 0.229025,-0.0062 0.34375,-0.0059 z M 9.4882812,23.992594 H 18.980469 V 54.531656 H 9.4882812 Z"
     style="fill:#000000;fill-opacity:1" />
</svg>
