<svg width="64" height="64" viewBox="0 0 64 64" fill="none" xmlns="http://www.w3.org/2000/svg">
<path d="M64 38.0602C64.01 33.6422 60.4794 30.0652 56.1488 30.0652C55.0686 30.0652 54.0384 30.2881 53.0883 30.6833C52.4482 23.509 46.5073 17.875 39.2561 17.875C37.4758 17.875 35.7556 18.2094 34.2253 18.8275C33.6152 19.0504 33.4452 19.2734 33.4452 19.7598V45.0622C33.4452 45.5689 33.8353 45.9337 34.3054 45.9945H56.1388C60.4694 45.9945 64 42.4479 64 38.0602Z" fill="black"/>
<path d="M32.7351 20.6008C32.6951 20.2968 32.5351 20.0131 32.285 19.8712C32.175 19.7902 32.005 19.7294 31.865 19.7294C31.6449 19.7294 31.4449 19.8104 31.3049 19.9219C31.1148 20.0942 30.9948 20.3475 30.9748 20.6008V20.6819L30.6448 38.5871L30.8148 41.8804L30.9848 45.0926C31.0148 45.5689 31.4049 45.9641 31.875 45.9641C32.345 45.9641 32.7351 45.5689 32.7351 45.0926L33.1252 38.5871L32.7351 20.6008Z" fill="black"/>
<path d="M15.8325 24.9175C16.1125 24.9175 16.3625 25.1405 16.3625 25.4546L16.8926 38.6277L16.3625 45.4979C16.3625 45.8121 16.1125 46.035 15.8325 46.035C15.5224 46.035 15.3024 45.8121 15.2724 45.4979L14.8323 38.6277L15.2724 25.4546C15.3024 25.1405 15.5224 24.9175 15.8325 24.9175Z" fill="black"/>
<path d="M13.7521 27.8663C13.7521 27.5825 13.5321 27.3596 13.2821 27.3596C13.002 27.3596 12.812 27.5825 12.782 27.8663L12.2819 38.5669L12.782 45.4878C12.812 45.7715 13.002 45.9945 13.2821 45.9945C13.5321 45.9945 13.7521 45.7715 13.7521 45.4878L14.3322 38.5669L13.7521 27.8663Z" fill="black"/>
<path d="M11.7218 38.5669L11.1417 31.9803C11.1117 31.7574 10.9217 31.5547 10.7017 31.5547C10.4716 31.5547 10.2816 31.7574 10.2816 31.9803L9.72153 38.5669L10.2816 45.4878C10.2816 45.7411 10.4816 45.9337 10.7017 45.9337C10.9217 45.9337 11.1117 45.7411 11.1417 45.4878L11.7218 38.5669Z" fill="black"/>
<path d="M0.970151 34.9595C0.940146 34.8176 0.860134 34.7061 0.720112 34.7061C0.58009 34.7061 0.500078 34.8176 0.470073 34.9595L0 38.5669L0.470073 42.1135C0.500078 42.2553 0.58009 42.3668 0.720112 42.3668C0.860134 42.3668 0.940146 42.2553 0.970151 42.1135L1.53024 38.5669L0.970151 34.9595Z" fill="black"/>
<path d="M3.08048 32.487C3.2205 32.487 3.33052 32.5985 3.36052 32.7403L4.08063 38.5669L3.36052 44.282C3.33052 44.4238 3.2205 44.5353 3.08048 44.5353C2.94045 44.5353 2.83044 44.4238 2.83044 44.2516L2.19034 38.5669L2.83044 32.7403C2.83044 32.5985 2.94045 32.487 3.08048 32.487Z" fill="black"/>
<path d="M5.92093 31.6662C5.92093 31.4737 5.78091 31.3318 5.61089 31.3318C5.44086 31.3318 5.30084 31.4737 5.28083 31.6662L4.70074 38.5669L5.28083 45.2345C5.31084 45.4067 5.45086 45.5486 5.61089 45.5486C5.78091 45.5486 5.92093 45.4067 5.92093 45.2345L6.61104 38.5669L5.92093 31.6662Z" fill="black"/>
<path d="M8.14126 31.1089C8.33129 31.1089 8.50131 31.2507 8.53132 31.4737L9.17142 38.5669L8.53132 45.4371C8.50131 45.6601 8.33129 45.8019 8.14126 45.8019C7.95123 45.8019 7.7812 45.6601 7.7812 45.4371L7.20111 38.5669L7.7812 31.4737C7.7812 31.2507 7.95123 31.1089 8.14126 31.1089Z" fill="black"/>
<path d="M29.6146 21.4216C29.8346 21.5635 29.9747 21.8168 30.0047 22.1005L30.3347 38.5973L30.0247 44.5353L29.9947 45.2142C29.9947 45.4473 29.9146 45.6398 29.7446 45.7817C29.6046 45.9235 29.4046 46.035 29.1845 46.035C28.9345 46.035 28.7145 45.9134 28.5444 45.7209C28.4344 45.579 28.3744 45.4169 28.3744 45.2446V45.2142C28.0644 38.5973 28.0644 38.5669 28.0644 38.5669L28.3444 22.2728L28.3744 22.1005C28.3744 21.8168 28.5144 21.5635 28.7345 21.4216C28.8645 21.3405 29.0145 21.2797 29.1745 21.2797C29.3346 21.2797 29.4746 21.3405 29.6146 21.4216Z" fill="black"/>
<path d="M19.083 24.3197C19.063 23.9853 18.8129 23.7016 18.4729 23.7016C18.1628 23.7016 17.8928 23.9853 17.8928 24.3197L17.4527 38.5669L17.8928 45.3763C17.9228 45.7107 18.1728 45.9641 18.4729 45.9641C18.8029 45.9641 19.053 45.7107 19.083 45.3763L19.5831 38.5669L19.083 24.3197Z" fill="black"/>
<path d="M26.4741 23.9549C26.8942 23.9549 27.1942 24.2893 27.2242 24.7453L27.6143 38.5973L27.2242 45.2446C27.2242 45.6702 26.8942 46.0046 26.4741 46.0046C26.0541 46.0046 25.724 45.6702 25.694 45.2446L25.3639 38.5973L25.694 24.7453C25.724 24.2893 26.0541 23.9549 26.4741 23.9549Z" fill="black"/>
<path d="M21.7834 23.8434C21.7534 23.4786 21.4733 23.1645 21.1133 23.1645C20.7832 23.1645 20.4732 23.4786 20.4732 23.8434L20.0831 38.5669L20.4732 45.3459C20.5032 45.7107 20.7832 45.9945 21.1133 45.9945C21.4733 45.9945 21.7534 45.7107 21.7834 45.3459L22.2235 38.5669L21.7834 23.8434Z" fill="black"/>
<path d="M23.7837 23.509C24.1738 23.509 24.4738 23.813 24.4738 24.2082L24.8939 38.5669L24.4738 45.2953C24.4738 45.6803 24.1638 45.9945 23.7837 45.9945C23.4037 45.9945 23.1236 45.6905 23.0936 45.2953L22.7035 38.5669L23.0936 24.2082C23.0936 23.8232 23.3937 23.509 23.7837 23.509Z" fill="black"/>
</svg>
