<?xml version="1.0" encoding="UTF-8" standalone="no"?>
<svg
   width="64"
   height="64"
   viewBox="0 0 64 64"
   fill="none"
   version="1.1"
   id="svg186"
   xmlns="http://www.w3.org/2000/svg"
   xmlns:svg="http://www.w3.org/2000/svg">
  <defs
     id="defs190" />
  <path
     id="path182"
     d="M 32,0 C 14.326918,0 0,14.326918 0,32 0,49.674282 14.326918,64 32,64 49.673482,64 64,49.674282 64,32 64,14.326918 49.673482,0 32,0 Z m -4.869141,16.927734 c 9.308343,-0.02398 19.431773,1.887349 26.853516,6.292969 1.422599,0.844399 1.888221,2.681564 1.044922,4.101563 -0.843799,1.422198 -2.680711,1.891374 -4.099609,1.046875 -10.31489,-6.125794 -27.330845,-6.689669 -37.177735,-3.701172 -1.581198,0.479599 -3.253322,-0.412842 -3.732422,-1.994141 -0.4792193,-1.581898 0.413796,-3.253675 1.996094,-3.734375 4.238846,-1.286624 9.530229,-1.997328 15.115234,-2.011719 z m 0.570313,11.027344 c 7.938449,0.17293 15.89524,2.262895 22.068359,6.056641 1.172799,0.722199 1.543265,2.258088 0.822266,3.429687 -0.723399,1.174199 -2.258942,1.542965 -3.431641,0.822266 -8.599591,-5.286195 -21.712729,-6.816813 -31.886718,-3.728516 -1.319499,0.3986 -2.712882,-0.347264 -3.113282,-1.664062 -0.397799,-1.319499 0.345311,-2.710129 1.66211,-3.111328 4.35847,-1.322474 9.115836,-1.908446 13.878906,-1.804688 z m 0.199219,10.435547 c 6.780685,0.124033 12.841661,1.800238 18.113281,5.021484 0.940399,0.5744 1.237109,1.804142 0.662109,2.744141 -0.574799,0.942699 -1.802888,1.236909 -2.742187,0.662109 -7.514793,-4.592695 -16.97244,-5.628481 -28.111328,-3.083984 -1.073299,0.2461 -2.143772,-0.427001 -2.388672,-1.5 -0.2461,-1.073399 0.424301,-2.143672 1.5,-2.388672 4.571133,-1.045049 8.898385,-1.529498 12.966797,-1.455078 z"
     style="fill:#000000;fill-opacity:1" />
</svg>
