<?xml version="1.0" encoding="UTF-8" standalone="no"?>
<svg
   width="64"
   height="44.798828"
   viewBox="0 0 64 44.798828"
   fill="none"
   version="1.1"
   id="svg931"
   xmlns="http://www.w3.org/2000/svg"
   xmlns:svg="http://www.w3.org/2000/svg">
  <defs
     id="defs935" />
  <path
     id="path927"
     d="M 32,0 C 32,0 11.987129,7.92e-4 6.9960938,1.337891 4.2424465,2.07379 2.0738499,4.241043 1.3378906,6.994141 3.1196258e-4,11.985736 0,22.400391 0,22.400391 c 0,0 3.1196258e-4,10.413201 1.3378906,15.404297 0.7359593,2.753097 2.9045559,4.922703 5.6582032,5.658203 C 11.987129,44.800389 32,44.798828 32,44.798828 c 0,0 20.012911,0.0016 25.003906,-1.335937 2.753697,-0.7355 4.922304,-2.905106 5.658203,-5.658203 C 63.999708,32.813592 64,22.400391 64,22.400391 c 0,0 -2.92e-4,-10.414655 -1.337891,-15.40625 C 61.92621,4.241043 59.757603,2.07379 57.003906,1.337891 52.012911,7.92e-4 32,0 32,0 Z M 25.599609,12.798828 42.226562,22.400391 25.599609,32 Z"
     style="fill:#000000;fill-opacity:1" />
</svg>
