<svg width="1080" height="1080" viewBox="0 0 1080 1080" fill="none" xmlns="http://www.w3.org/2000/svg">
<circle cx="540" cy="540" r="540" fill="#54818C"/>
<mask id="mask0_6_24" style="mask-type:alpha" maskUnits="userSpaceOnUse" x="0" y="0" width="1080" height="1080">
<circle cx="540" cy="540" r="540" fill="white"/>
</mask>
<g mask="url(#mask0_6_24)">
<path d="M76.6538 250.72C-202.076 293.524 -474.59 369.44 -738.38 472.423C-1190 656.365 -1625.89 894.973 -1984.91 1228.84C-2258.9 1486.67 -2448.81 1826.67 -2531.01 2193.35C-2590.95 2490.06 -2603.1 2811.24 -2487.08 3096.35C-2429.42 2781.67 -2364.05 2464.61 -2238.46 2168.95C-2075.66 1753.39 -1755.93 1412.72 -1371.95 1191.11C-993.896 974.229 -575.96 837.843 -144.942 748.215C-33.6417 725.071 -36.6712 770.888 -15.3497 825.909C2.91302 873.036 13.8985 901.994 48.8195 938.736C77.8125 969.24 139.632 1005.36 139.632 1005.36C139.632 1005.36 216.709 1043.01 260.39 1057.03C340.215 1082.64 397.842 1065.56 465.161 1051.64C548.258 1034.45 592.37 1008.68 662.799 961.346C920.21 788.36 949.71 481.754 930.221 213.571C751.487 209.32 572.451 206.755 393.858 216.784C296.464 222.644 199.692 232.691 103.648 246.682C94.6435 247.994 85.645 249.339 76.6538 250.72ZM514.834 407.115C552.441 401.49 590.742 411.035 621.312 433.649C651.882 456.264 672.216 490.096 677.842 527.703C680.627 546.324 679.717 565.312 675.164 583.581C670.611 601.851 662.505 619.045 651.307 634.181C640.11 649.318 626.041 662.101 609.903 671.8C593.765 681.5 575.875 687.925 557.253 690.711C538.632 693.496 519.645 692.586 501.376 688.034C483.106 683.481 465.912 675.374 450.775 664.177C435.639 652.979 422.856 638.91 413.157 622.772C403.457 606.634 397.032 588.744 394.246 570.123C388.621 532.516 398.165 494.214 420.78 463.645C443.395 433.075 477.227 412.741 514.834 407.115ZM-381.683 538.768C-101.827 495.785 38.2524 540.708 40.348 541.693C40.348 541.693 -268.465 600.84 -419.108 644.971C-625.999 705.579 -797.335 760.737 -1026.91 866.035C-1271.65 978.285 -1412.15 1043.51 -1626.4 1206.58C-1824.28 1357.18 -1942.71 1470.17 -2081.65 1651.78C-2231.76 1847.99 -2336.92 2136.9 -2370.63 2209.11C-2386.69 2243.52 -2432.34 2338.52 -2432.34 2338.52C-2432.34 2338.52 -2433.52 2325.95 -2427.96 2289.71C-2410.18 2097.41 -2343.8 1908.91 -2244.05 1745.43C-2070.91 1461.7 -1822.69 1219.47 -1549.93 1029.5C-1423.53 941.468 -1137.3 775.823 -908.375 686.372C-711.076 609.279 -544.745 566.096 -409.202 543.203C-399.883 541.629 -390.711 540.154 -381.683 538.768Z" fill="white"/>
</g>
</svg>
