<svg width="1080" height="1080" viewBox="0 0 1080 1080" fill="none" xmlns="http://www.w3.org/2000/svg">
<circle cx="540" cy="540" r="540" fill="#54818C"/>
<path d="M786.946 258.449C721.749 258.85 656.859 267.035 593.053 281.704C483.555 308.564 375.816 348.458 282.449 412.729C211.094 462.475 156.202 533.846 125.047 614.948C101.343 680.797 87.7444 753.852 104.677 822.973C128.466 752.939 154.1 682.617 192.786 619.222C244.022 529.654 328.63 462.503 423.925 424.748C517.704 387.876 617.894 370.759 719.501 364.777C745.738 363.233 743.502 373.611 746.525 386.914C749.115 398.309 750.652 405.302 757.402 414.883C763.006 422.837 775.93 433.181 775.93 433.181C775.93 433.181 792.291 444.39 801.81 449.067C819.206 457.614 832.963 455.649 848.83 454.732C868.416 453.6 879.373 449.191 897.077 440.737C961.783 409.841 978.859 340.704 983.435 278.706C942.696 271.712 901.832 265.094 860.644 261.372C838.169 259.432 815.696 258.47 793.256 258.435C791.152 258.431 789.049 258.436 786.946 258.449ZM881.903 308.982C890.695 308.963 899.134 312.436 905.364 318.638C911.595 324.841 915.106 333.264 915.126 342.056C915.136 346.409 914.288 350.721 912.631 354.747C910.975 358.772 908.541 362.432 905.47 365.517C902.399 368.602 898.75 371.052 894.732 372.727C890.714 374.402 886.406 375.269 882.053 375.279C877.699 375.289 873.387 374.441 869.362 372.784C865.336 371.127 861.676 368.694 858.591 365.623C855.506 362.552 853.056 358.903 851.381 354.885C849.707 350.867 848.839 346.558 848.83 342.205C848.81 333.414 852.283 324.975 858.486 318.744C864.688 312.514 873.112 309.002 881.903 308.982ZM672.406 308.895C737.866 308.491 768.393 323.485 768.839 323.781C768.839 323.781 696.211 326.907 660.268 331.926C610.904 338.82 569.855 345.665 513.796 362.016C454.036 379.447 419.702 389.633 365.202 419.714C314.868 447.496 283.974 469.351 246.075 506.211C205.129 546.034 171.344 608.575 161.202 623.955C156.368 631.286 142.728 651.476 142.728 651.476C142.728 651.476 142.88 648.562 145.373 640.46C155.919 597.073 177.451 556.193 205.775 522.162C254.935 463.095 319.871 416.051 388.658 381.788C420.536 365.909 491.585 337.663 546.962 324.914C594.688 313.927 634.188 309.653 665.962 308.982C668.146 308.936 670.294 308.908 672.406 308.895Z" fill="white"/>
</svg>
